<mxfile host="app.diagrams.net" modified="2024-06-04T02:50:03.279Z" agent="Mozilla/5.0 (Windows NT 10.0; Win64; x64) AppleWebKit/537.36 (KHTML, like Gecko) Chrome/125.0.0.0 Safari/537.36 Edg/125.0.0.0" version="23.1.5" etag="l0z08cUssMAC3bxOnfeQ" type="github">
  <diagram name="第 1 页" id="bSY2Q5Ia3NvBV1f3jc-m">
    <mxGraphModel>
      <root>
        <mxCell id="0" />
        <mxCell id="1" parent="0" />
      </root>
    </mxGraphModel>
  </diagram>
</mxfile>
